<svg width="181" height="51" viewBox="0 0 181 51" fill="none" xmlns="http://www.w3.org/2000/svg">
<path d="M0 43.9018V2.53204H15.5137C18.6918 2.53204 21.3582 3.08417 23.5129 4.18844C25.681 5.29271 27.3173 6.84139 28.4215 8.83446C29.5393 10.8141 30.0981 13.1236 30.0981 15.7631C30.0981 18.416 29.5325 20.7189 28.4013 22.6715C27.2836 24.6107 25.6339 26.1123 23.4523 27.1761C21.2707 28.2266 18.5908 28.7518 15.4127 28.7518H4.36322V22.5301H14.4027C16.2611 22.5301 17.7828 22.2743 18.9679 21.7625C20.153 21.2373 21.0283 20.4764 21.5939 19.4799C22.173 18.4699 22.4625 17.231 22.4625 15.7631C22.4625 14.2952 22.173 13.0428 21.5939 12.0059C21.0148 10.9555 20.1328 10.1609 18.9477 9.62227C17.7626 9.07013 16.2341 8.79406 14.3623 8.79406H7.49423V43.9018H0ZM21.3717 25.1561L31.6131 43.9018H23.2503L13.1907 25.1561H21.3717Z" fill="white"/>
<path d="M56.4491 30.8526V12.8745H63.7616V43.9018H56.6713V38.3872H56.3482C55.6479 40.1244 54.4965 41.5451 52.8939 42.6494C51.3049 43.7537 49.3454 44.3058 47.0157 44.3058C44.9822 44.3058 43.1844 43.8547 41.6223 42.9524C40.0736 42.0367 38.8616 40.7102 37.9863 38.973C37.1109 37.2223 36.6733 35.108 36.6733 32.6302V12.8745H43.9857V31.499C43.9857 33.4651 44.5244 35.0272 45.6017 36.1854C46.679 37.3435 48.093 37.9226 49.8437 37.9226C50.9211 37.9226 51.9647 37.66 52.9747 37.1348C53.9847 36.6096 54.8129 35.8285 55.4593 34.7916C56.1192 33.7412 56.4491 32.4282 56.4491 30.8526Z" fill="white"/>
<path d="M95.804 21.0757L89.1379 21.8029C88.9494 21.1296 88.6195 20.4967 88.1481 19.9041C87.6903 19.3116 87.0708 18.8335 86.2897 18.4699C85.5087 18.1063 84.5525 17.9245 83.4213 17.9245C81.8996 17.9245 80.6202 18.2544 79.5833 18.9143C78.5598 19.5742 78.0548 20.4293 78.0683 21.4797C78.0548 22.382 78.3848 23.1159 79.0581 23.6815C79.7449 24.2471 80.8761 24.7117 82.4517 25.0753L87.7441 26.2065C90.6799 26.8395 92.8615 27.8428 94.289 29.2164C95.7299 30.59 96.4571 32.3878 96.4706 34.6098C96.4571 36.5625 95.8848 38.2862 94.7536 39.781C93.6358 41.2623 92.0804 42.4205 90.0873 43.2554C88.0943 44.0904 85.8049 44.5078 83.2193 44.5078C79.4217 44.5078 76.3648 43.7133 74.0485 42.1242C71.7322 40.5217 70.3519 38.2929 69.9074 35.438L77.0381 34.7512C77.3613 36.1517 78.0481 37.2089 79.0985 37.9226C80.1489 38.6363 81.5158 38.9932 83.1991 38.9932C84.9363 38.9932 86.3301 38.6363 87.3805 37.9226C88.4444 37.2089 88.9763 36.3268 88.9763 35.2764C88.9763 34.3876 88.6329 33.6536 87.9461 33.0746C87.2728 32.4955 86.2224 32.0511 84.7949 31.7414L79.5025 30.6304C76.5263 30.0109 74.3245 28.9672 72.8971 27.4993C71.4696 26.018 70.7626 24.1461 70.7761 21.8837C70.7626 19.9714 71.2811 18.315 72.3315 16.9145C73.3953 15.5005 74.8699 14.4097 76.7553 13.6421C78.6541 12.861 80.8424 12.4705 83.3203 12.4705C86.9563 12.4705 89.818 13.2448 91.9053 14.7935C94.0062 16.3422 95.3057 18.4362 95.804 21.0757Z" fill="white"/>
<path d="M138.052 43.9018V12.8745H145.365V43.9018H138.052ZM141.729 8.47086C140.571 8.47086 139.574 8.08706 138.739 7.31946C137.904 6.53839 137.487 5.60245 137.487 4.51164C137.487 3.40737 137.904 2.47143 138.739 1.70383C139.574 0.922761 140.571 0.532227 141.729 0.532227C142.9 0.532227 143.897 0.922761 144.718 1.70383C145.553 2.47143 145.971 3.40737 145.971 4.51164C145.971 5.60245 145.553 6.53839 144.718 7.31946C143.897 8.08706 142.9 8.47086 141.729 8.47086Z" fill="white"/>
<path d="M166.62 44.5078C163.51 44.5078 160.823 43.8614 158.561 42.5686C156.312 41.2623 154.581 39.4174 153.369 37.0338C152.157 34.6367 151.551 31.8154 151.551 28.57C151.551 25.3783 152.157 22.5773 153.369 20.1667C154.595 17.7427 156.305 15.8574 158.5 14.5107C160.695 13.1506 163.274 12.4705 166.237 12.4705C168.149 12.4705 169.953 12.7802 171.65 13.3997C173.361 14.0057 174.869 14.9484 176.175 16.2277C177.495 17.507 178.532 19.1365 179.286 21.1161C180.04 23.0823 180.417 25.4255 180.417 28.1458V30.388H154.985V25.4591H173.408C173.394 24.0586 173.091 22.8129 172.499 21.7221C171.906 20.6179 171.078 19.7492 170.014 19.1163C168.964 18.4834 167.738 18.1669 166.338 18.1669C164.843 18.1669 163.53 18.5305 162.399 19.2577C161.267 19.9714 160.385 20.9141 159.752 22.0857C159.133 23.2439 158.816 24.5165 158.803 25.9035V30.2062C158.803 32.0107 159.133 33.5594 159.793 34.8522C160.453 36.1315 161.375 37.1146 162.56 37.8014C163.745 38.4747 165.132 38.8114 166.721 38.8114C167.785 38.8114 168.748 38.6633 169.61 38.367C170.472 38.0573 171.219 37.6061 171.852 37.0136C172.485 36.4211 172.963 35.6871 173.286 34.8118L180.114 35.5794C179.683 37.3839 178.862 38.9595 177.65 40.3062C176.451 41.6394 174.916 42.6763 173.044 43.417C171.172 44.1442 169.031 44.5078 166.62 44.5078Z" fill="white"/>
<path d="M102.735 25.3314C103.101 20.6221 106.852 14.5899 113.676 12.7234C120.232 10.9293 127.262 13.7922 130.66 19.7551C134.137 25.8535 133.519 33.3071 127.695 39.0143C124.951 41.697 121.38 42.7534 117.53 42.8089C113.633 42.8658 110.372 41.2781 107.298 38.9111C107.268 39.1452 107.24 39.2638 107.239 39.3824C107.181 42.738 107.109 46.0937 107.086 49.4509C107.086 50.0145 106.957 50.2316 106.371 50.2085C105.358 50.167 104.339 50.1793 103.322 50.2085C102.798 50.2193 102.567 50.0068 102.607 49.4817C102.619 49.3277 102.607 49.1737 102.607 49.0197C102.552 46.203 102.455 43.3864 102.455 40.5697C102.455 37.06 102.563 33.5504 102.598 30.0407C102.598 29.437 102.816 29.2261 103.406 29.2476C104.37 29.2815 105.338 29.2877 106.303 29.2476C106.887 29.2214 107.129 29.4139 107.288 30.0038C108.567 34.7624 111.625 37.6206 116.443 38.4291C122.289 39.4101 128.055 34.7885 128.761 28.8503C129.537 22.3223 124.339 16.2654 117.507 16.4533C112.895 16.5811 108.541 20.02 107.373 24.6153C107.23 25.179 107.003 25.3684 106.449 25.3561C105.29 25.3268 106.417 38.7787 105.801 38.8865C105.786 38.8865 105.78 38.8865 105.758 38.8865C105.274 38.9897 105.847 43.1723 105.758 43.1862C105.617 43.1908 104.2 34.4913 102.735 25.3314Z" fill="white"/>
<path d="M126.096 27.4916C126.114 28.5906 125.915 29.6822 125.511 30.703C125.107 31.7238 124.507 32.6534 123.745 33.4379C122.983 34.2223 122.074 34.846 121.071 35.2728C120.068 35.6995 118.991 35.9208 117.903 35.9238C116.815 35.9267 115.737 35.7113 114.732 35.29C113.727 34.8687 112.814 34.25 112.048 33.4696C111.282 32.6893 110.676 31.763 110.267 30.7444C109.858 29.7259 109.653 28.6354 109.665 27.5363C109.641 22.9887 113.278 19.3265 117.718 19.2003C122.236 19.0647 126.181 22.8993 126.096 27.4916ZM111.289 27.3376L111.803 27.9906C111.993 27.7319 112.344 27.4778 112.35 27.2206C112.412 24.5856 114.603 22.0523 117.671 21.8583C117.919 21.8429 118.145 21.4841 118.383 21.2854C118.105 21.1314 117.823 20.8234 117.549 20.8234C114.338 20.9004 111.397 23.848 111.289 27.3438V27.3376Z" fill="white"/>
</svg>
