<svg width="99" height="28" viewBox="0 0 99 28" fill="none" xmlns="http://www.w3.org/2000/svg">
<path d="M0 24.0927V1.56078H8.44948C10.1804 1.56078 11.6327 1.8615 12.8062 2.46294C13.9871 3.06437 14.8783 3.90785 15.4797 4.99338C16.0885 6.07157 16.3929 7.32945 16.3929 8.76704C16.3929 10.212 16.0848 11.4662 15.4687 12.5297C14.8599 13.5859 13.9614 14.4037 12.7732 14.9831C11.585 15.5552 10.1254 15.8413 8.39447 15.8413H2.37642V12.4527H7.84437C8.85655 12.4527 9.68536 12.3133 10.3308 12.0346C10.9763 11.7486 11.453 11.3342 11.7611 10.7914C12.0764 10.2413 12.2341 9.56651 12.2341 8.76704C12.2341 7.96757 12.0764 7.28545 11.7611 6.72068C11.4457 6.14858 10.9652 5.71584 10.3198 5.42245C9.67436 5.12173 8.84188 4.97138 7.82237 4.97138H4.08171V24.0927H0ZM11.64 13.8829L17.218 24.0927H12.6632L7.18426 13.8829H11.64Z" fill="black"/>
<path d="M30.7449 16.9855V7.19376H34.7276V24.0927H30.8659V21.0892H30.6899C30.3085 22.0354 29.6814 22.8092 28.8085 23.4106C27.943 24.012 26.8759 24.3128 25.607 24.3128C24.4994 24.3128 23.5203 24.067 22.6695 23.5756C21.826 23.0769 21.1659 22.3544 20.6891 21.4082C20.2124 20.4547 19.974 19.3032 19.974 17.9536V7.19376H23.9567V17.3375C23.9567 18.4084 24.2501 19.2592 24.8368 19.89C25.4236 20.5208 26.1937 20.8361 27.1472 20.8361C27.734 20.8361 28.3024 20.6931 28.8525 20.4071C29.4026 20.121 29.8537 19.6956 30.2058 19.1308C30.5652 18.5588 30.7449 17.8436 30.7449 16.9855Z" fill="black"/>
<path d="M52.1794 11.6605L48.5487 12.0566C48.446 11.6899 48.2663 11.3452 48.0096 11.0224C47.7603 10.6997 47.4229 10.4393 46.9975 10.2413C46.5721 10.0433 46.0513 9.94424 45.4352 9.94424C44.6064 9.94424 43.9096 10.1239 43.3448 10.4833C42.7874 10.8427 42.5123 11.3085 42.5197 11.8806C42.5123 12.372 42.692 12.7717 43.0588 13.0798C43.4328 13.3878 44.049 13.6409 44.9071 13.8389L47.7896 14.455C49.3885 14.7998 50.5768 15.3462 51.3542 16.0943C52.139 16.8425 52.5351 17.8216 52.5424 19.0318C52.5351 20.0954 52.2234 21.0342 51.6073 21.8483C50.9985 22.6551 50.1513 23.2859 49.0658 23.7407C47.9803 24.1954 46.7334 24.4228 45.3252 24.4228C43.2568 24.4228 41.5919 23.99 40.3303 23.1245C39.0687 22.2517 38.3169 21.0378 38.0749 19.4829L41.9586 19.1088C42.1346 19.8716 42.5087 20.4474 43.0808 20.8361C43.6529 21.2249 44.3973 21.4193 45.3142 21.4193C46.2603 21.4193 47.0195 21.2249 47.5916 20.8361C48.171 20.4474 48.4607 19.967 48.4607 19.3949C48.4607 18.9108 48.2737 18.5111 47.8996 18.1957C47.5329 17.8803 46.9608 17.6383 46.1833 17.4696L43.3008 16.8645C41.6799 16.5271 40.4807 15.9586 39.7032 15.1592C38.9257 14.3523 38.5406 13.3328 38.548 12.1006C38.5406 11.0591 38.823 10.1569 39.3951 9.39415C39.9746 8.62401 40.7777 8.02991 41.8046 7.61184C42.8387 7.18643 44.0306 6.97373 45.3802 6.97373C47.3605 6.97373 48.9191 7.39547 50.056 8.23895C51.2002 9.08243 51.908 10.223 52.1794 11.6605Z" fill="black"/>
<path d="M75.1899 24.0927V7.19376H79.1726V24.0927H75.1899ZM77.1922 4.79534C76.5615 4.79534 76.0187 4.58631 75.5639 4.16823C75.1092 3.74283 74.8818 3.23307 74.8818 2.63897C74.8818 2.03753 75.1092 1.52777 75.5639 1.1097C76.0187 0.684292 76.5615 0.471588 77.1922 0.471588C77.8303 0.471588 78.3731 0.684292 78.8205 1.1097C79.2753 1.52777 79.5026 2.03753 79.5026 2.63897C79.5026 3.23307 79.2753 3.74283 78.8205 4.16823C78.3731 4.58631 77.8303 4.79534 77.1922 4.79534Z" fill="black"/>
<path d="M90.7494 24.4228C89.0551 24.4228 87.5918 24.0707 86.3596 23.3666C85.1347 22.6551 84.1922 21.6503 83.5321 20.3521C82.872 19.0465 82.5419 17.5099 82.5419 15.7423C82.5419 14.004 82.872 12.4784 83.5321 11.1655C84.1995 9.84523 85.131 8.81838 86.3266 8.08492C87.5221 7.34412 88.9267 6.97373 90.5403 6.97373C91.5818 6.97373 92.5647 7.14242 93.4888 7.47981C94.4203 7.80987 95.2418 8.32329 95.9533 9.02008C96.6721 9.71687 97.2368 10.6044 97.6476 11.6825C98.0583 12.7534 98.2637 14.0296 98.2637 15.5112V16.7324H84.4122V14.048H94.446C94.4387 13.2852 94.2736 12.6067 93.9509 12.0126C93.6282 11.4112 93.1771 10.9381 92.5977 10.5934C92.0256 10.2486 91.3581 10.0763 90.5953 10.0763C89.7812 10.0763 89.0661 10.2743 88.45 10.6704C87.8338 11.0591 87.3534 11.5725 87.0087 12.2106C86.6713 12.8414 86.4989 13.5345 86.4916 14.29V16.6334C86.4916 17.6163 86.6713 18.4597 87.0307 19.1639C87.3901 19.8606 87.8925 20.3961 88.538 20.7701C89.1834 21.1369 89.9389 21.3202 90.8044 21.3202C91.3838 21.3202 91.9082 21.2396 92.3776 21.0782C92.8471 20.9095 93.2541 20.6638 93.5989 20.3411C93.9436 20.0183 94.204 19.6186 94.38 19.1419L98.0986 19.5599C97.8639 20.5428 97.4165 21.4009 96.7564 22.1344C96.1036 22.8605 95.2675 23.4253 94.248 23.8287C93.2284 24.2247 92.0622 24.4228 90.7494 24.4228Z" fill="black"/>
<path d="M55.9545 13.9783C56.1538 11.4134 58.1966 8.12798 61.9134 7.1114C65.4841 6.13425 69.313 7.6935 71.164 10.9412C73.0573 14.2626 72.721 18.3222 69.5489 21.4306C68.0542 22.8918 66.1094 23.4671 64.0127 23.4973C61.8902 23.5284 60.114 22.6636 58.4399 21.3744C58.4233 21.5019 58.4084 21.5665 58.4075 21.6311C58.376 23.4588 58.3369 25.2864 58.3245 27.1149C58.3245 27.4219 58.2539 27.5401 57.935 27.5276C57.3828 27.5049 56.8281 27.5116 56.2743 27.5276C55.9886 27.5334 55.8632 27.4177 55.8848 27.1317C55.8914 27.0478 55.8848 26.9639 55.8848 26.88C55.8549 25.346 55.8018 23.8119 55.8018 22.2778C55.8018 20.3663 55.8607 18.4547 55.8798 16.5432C55.8798 16.2144 55.9986 16.0995 56.3199 16.1113C56.8447 16.1297 57.372 16.1331 57.8977 16.1113C58.2157 16.097 58.3477 16.2018 58.4341 16.5231C59.1308 19.1148 60.7966 20.6716 63.4206 21.1119C66.6043 21.6462 69.7448 19.1291 70.1293 15.8949C70.552 12.3394 67.7212 9.04054 64.0002 9.14287C61.4883 9.21249 59.1167 11.0854 58.4806 13.5883C58.4025 13.8953 58.2788 13.9984 57.9774 13.9917C57.3463 13.9758 57.9599 21.3023 57.6245 21.361C57.6162 21.361 57.6128 21.361 57.6012 21.361C57.3371 21.4172 57.6494 23.6953 57.6012 23.7028C57.524 23.7053 56.7526 18.9672 55.9545 13.9783Z" fill="black"/>
<path d="M68.6779 15.1551C68.6874 15.7537 68.5791 16.3482 68.3593 16.9042C68.1394 17.4601 67.8124 17.9665 67.3973 18.3937C66.9821 18.821 66.4871 19.1607 65.9409 19.3931C65.3947 19.6255 64.8082 19.7461 64.2155 19.7477C63.6228 19.7493 63.0357 19.632 62.4883 19.4025C61.9409 19.1731 61.444 18.836 61.0266 18.411C60.6092 17.986 60.2795 17.4815 60.0567 16.9268C59.8339 16.372 59.7225 15.7781 59.7288 15.1794C59.7155 12.7026 61.6968 10.708 64.1149 10.6393C66.5753 10.5654 68.7244 12.6539 68.6779 15.1551ZM60.6131 15.0712L60.893 15.4269C60.9968 15.286 61.1878 15.1476 61.1911 15.0075C61.2251 13.5724 62.4184 12.1926 64.0892 12.087C64.2245 12.0786 64.3474 11.8831 64.4769 11.7749C64.3258 11.6911 64.1722 11.5233 64.0227 11.5233C62.2739 11.5652 60.6721 13.1706 60.6131 15.0746V15.0712Z" fill="black"/>
</svg>
