<svg width="182" height="51" viewBox="0 0 182 51" fill="none" xmlns="http://www.w3.org/2000/svg">
<path d="M0.791504 44.1919V2.82207H16.3052C19.4833 2.82207 22.1497 3.37421 24.3044 4.47848C26.4725 5.58275 28.1088 7.13143 29.213 9.1245C30.3308 11.1041 30.8896 13.4137 30.8896 16.0531C30.8896 18.7061 30.324 21.0089 29.1928 22.9616C28.0751 24.9008 26.4254 26.4023 24.2438 27.4662C22.0622 28.5166 19.3823 29.0418 16.2042 29.0418H5.15472V22.8202H15.1942C17.0526 22.8202 18.5743 22.5643 19.7594 22.0526C20.9445 21.5274 21.8198 20.7665 22.3854 19.77C22.9645 18.7599 23.254 17.521 23.254 16.0531C23.254 14.5853 22.9645 13.3329 22.3854 12.2959C21.8063 11.2455 20.9243 10.451 19.7392 9.91231C18.5541 9.36017 17.0256 9.0841 15.1538 9.0841H8.28574V44.1919H0.791504ZM22.1632 25.4462L32.4046 44.1919H24.0418L13.9822 25.4462H22.1632Z" fill="black"/>
<path d="M57.2407 31.1426V13.1645H64.5531V44.1919H57.4628V38.6772H57.1397C56.4394 40.4144 55.288 41.8352 53.6854 42.9395C52.0964 44.0437 50.137 44.5959 47.8072 44.5959C45.7737 44.5959 43.9759 44.1447 42.4138 43.2425C40.8651 42.3267 39.6531 41.0002 38.7778 39.263C37.9024 37.5124 37.4648 35.3981 37.4648 32.9202V13.1645H44.7772V31.789C44.7772 33.7551 45.3159 35.3173 46.3932 36.4754C47.4705 37.6336 48.8846 38.2126 50.6352 38.2126C51.7126 38.2126 52.7562 37.95 53.7662 37.4248C54.7762 36.8996 55.6044 36.1186 56.2508 35.0816C56.9107 34.0312 57.2407 32.7182 57.2407 31.1426Z" fill="black"/>
<path d="M96.5955 21.3658L89.9294 22.093C89.7409 21.4196 89.411 20.7867 88.9396 20.1942C88.4818 19.6016 87.8623 19.1236 87.0812 18.7599C86.3002 18.3963 85.344 18.2145 84.2128 18.2145C82.6911 18.2145 81.4117 18.5445 80.3748 19.2043C79.3513 19.8642 78.8463 20.7194 78.8598 21.7698C78.8463 22.672 79.1763 23.406 79.8496 23.9716C80.5364 24.5372 81.6676 25.0018 83.2432 25.3654L88.5356 26.4966C91.4714 27.1295 93.653 28.1328 95.0805 29.5064C96.5214 30.88 97.2486 32.6778 97.2621 34.8998C97.2486 36.8525 96.6763 38.5762 95.5451 40.071C94.4273 41.5524 92.8719 42.7105 90.8788 43.5455C88.8858 44.3804 86.5964 44.7979 84.0108 44.7979C80.2132 44.7979 77.1563 44.0033 74.84 42.4143C72.5237 40.8117 71.1434 38.583 70.699 35.728L77.8296 35.0412C78.1528 36.4418 78.8396 37.4989 79.89 38.2126C80.9404 38.9264 82.3073 39.2832 83.9906 39.2832C85.7278 39.2832 87.1216 38.9264 88.172 38.2126C89.2359 37.4989 89.7678 36.6168 89.7678 35.5664C89.7678 34.6776 89.4244 33.9437 88.7376 33.3646C88.0643 32.7855 87.0139 32.3411 85.5864 32.0314L80.294 30.9204C77.3178 30.3009 75.116 29.2573 73.6886 27.7894C72.2611 26.308 71.5541 24.4362 71.5676 22.1738C71.5541 20.2615 72.0726 18.6051 73.123 17.2045C74.1868 15.7905 75.6614 14.6997 77.5468 13.9321C79.4456 13.1511 81.6339 12.7605 84.1118 12.7605C87.7478 12.7605 90.6095 13.5349 92.6969 15.0835C94.7977 16.6322 96.0972 18.7263 96.5955 21.3658Z" fill="black"/>
<path d="M138.844 44.1919V13.1645H146.156V44.1919H138.844ZM142.52 8.7609C141.362 8.7609 140.366 8.3771 139.531 7.6095C138.696 6.82842 138.278 5.89249 138.278 4.80168C138.278 3.69741 138.696 2.76147 139.531 1.99387C140.366 1.2128 141.362 0.822266 142.52 0.822266C143.692 0.822266 144.689 1.2128 145.51 1.99387C146.345 2.76147 146.762 3.69741 146.762 4.80168C146.762 5.89249 146.345 6.82842 145.51 7.6095C144.689 8.3771 143.692 8.7609 142.52 8.7609Z" fill="black"/>
<path d="M167.412 44.7979C164.301 44.7979 161.615 44.1515 159.352 42.8587C157.103 41.5524 155.373 39.7074 154.161 37.3238C152.949 34.9268 152.343 32.1055 152.343 28.86C152.343 25.6684 152.949 22.8673 154.161 20.4568C155.386 18.0327 157.096 16.1474 159.291 14.8007C161.487 13.4406 164.065 12.7605 167.028 12.7605C168.94 12.7605 170.745 13.0703 172.442 13.6897C174.152 14.2957 175.66 15.2384 176.967 16.5177C178.286 17.7971 179.323 19.4266 180.077 21.4062C180.832 23.3723 181.209 25.7155 181.209 28.4358V30.678H155.777V25.7492H174.199C174.186 24.3486 173.883 23.103 173.29 22.0122C172.698 20.9079 171.869 20.0393 170.806 19.4064C169.755 18.7734 168.53 18.4569 167.129 18.4569C165.634 18.4569 164.321 18.8205 163.19 19.5477C162.059 20.2615 161.177 21.2042 160.544 22.3758C159.924 23.5339 159.608 24.8065 159.594 26.1936V30.4962C159.594 32.3007 159.924 33.8494 160.584 35.1422C161.244 36.4216 162.167 37.4046 163.352 38.0914C164.537 38.7648 165.924 39.1014 167.513 39.1014C168.577 39.1014 169.54 38.9533 170.402 38.657C171.263 38.3473 172.011 37.8962 172.644 37.3036C173.277 36.7111 173.755 35.9772 174.078 35.1018L180.906 35.8694C180.475 37.674 179.653 39.2496 178.441 40.5962C177.243 41.9295 175.707 42.9664 173.836 43.7071C171.964 44.4343 169.822 44.7979 167.412 44.7979Z" fill="black"/>
<path d="M103.527 25.6212C103.893 20.9119 107.643 14.8797 114.468 13.0132C121.024 11.2191 128.054 14.082 131.452 20.0449C134.928 26.1433 134.311 33.5969 128.487 39.3041C125.742 41.9868 122.172 43.0432 118.322 43.0986C114.425 43.1556 111.164 41.5679 108.09 39.2009C108.06 39.435 108.032 39.5536 108.031 39.6722C107.973 43.0278 107.901 46.3835 107.878 49.7407C107.878 50.3043 107.749 50.5214 107.163 50.4983C106.149 50.4568 105.131 50.4691 104.114 50.4983C103.589 50.5091 103.359 50.2966 103.399 49.7715C103.411 49.6175 103.399 49.4635 103.399 49.3095C103.344 46.4928 103.246 43.6762 103.246 40.8595C103.246 37.3498 103.355 33.8402 103.39 30.3305C103.39 29.7268 103.608 29.5159 104.198 29.5374C105.161 29.5713 106.129 29.5775 107.095 29.5374C107.678 29.5112 107.921 29.7037 108.079 30.2936C109.359 35.0522 112.417 37.9104 117.235 38.7189C123.08 39.6999 128.847 35.0783 129.552 29.1401C130.329 22.6121 125.131 16.5552 118.299 16.7431C113.687 16.8709 109.333 20.3098 108.165 24.9051C108.022 25.4687 107.794 25.6582 107.241 25.6458C106.082 25.6166 107.209 39.0685 106.593 39.1763C106.578 39.1763 106.572 39.1763 106.55 39.1763C106.065 39.2795 106.639 43.4621 106.55 43.476C106.408 43.4806 104.992 34.7811 103.527 25.6212Z" fill="black"/>
<path d="M126.888 27.7812C126.905 28.8802 126.706 29.9718 126.303 30.9925C125.899 32.0133 125.299 32.9429 124.537 33.7274C123.774 34.5119 122.865 35.1356 121.863 35.5623C120.86 35.9891 119.783 36.2104 118.695 36.2133C117.606 36.2163 116.529 36.0009 115.523 35.5796C114.518 35.1583 113.606 34.5395 112.84 33.7592C112.073 32.9789 111.468 32.0525 111.059 31.034C110.65 30.0154 110.445 28.9249 110.457 27.8258C110.432 23.2782 114.07 19.6161 118.51 19.4898C123.027 19.3543 126.973 23.1889 126.888 27.7812ZM112.081 27.6272L112.594 28.2801C112.785 28.0214 113.136 27.7673 113.142 27.5101C113.204 24.8752 115.395 22.3419 118.463 22.1479C118.711 22.1325 118.937 21.7736 119.175 21.575C118.897 21.421 118.615 21.113 118.341 21.113C115.13 21.19 112.189 24.1375 112.081 27.6333V27.6272Z" fill="black"/>
</svg>
